<svg width="119" height="41" viewBox="0 0 119 41" fill="none" xmlns="http://www.w3.org/2000/svg">
<path d="M16.4661 22.5892C15.6095 22.5892 14.8739 22.4868 14.2593 22.2819C13.6448 22.0957 13.1885 21.6953 12.8906 21.0808C12.6112 20.4662 12.5647 19.5444 12.7509 18.3153L14.0359 9.20887C14.1848 8.18462 14.4828 7.41179 14.9297 6.89035C15.3767 6.3503 15.9354 5.98716 16.6058 5.80093C17.2948 5.6147 18.0583 5.52159 18.8964 5.52159C19.753 5.52159 20.4793 5.62402 21.0752 5.82887C21.6897 6.01509 22.1367 6.36892 22.416 6.89035C22.6954 7.41179 22.7605 8.18462 22.6116 9.20887L22.1926 12.2257H20.0416L20.4607 9.153C20.5724 8.48259 20.5538 7.98909 20.4048 7.6725C20.2744 7.3373 20.051 7.12314 19.7344 7.03002C19.4364 6.91829 19.0826 6.86242 18.6729 6.86242C18.2632 6.86242 17.8907 6.91829 17.5555 7.03002C17.2203 7.12314 16.941 7.3373 16.7175 7.6725C16.5127 7.98909 16.3544 8.48259 16.2426 9.153L14.8739 18.9857C14.7808 19.6562 14.7994 20.159 14.9297 20.4942C15.0601 20.8108 15.2743 21.0249 15.5722 21.1366C15.8888 21.2298 16.2519 21.2763 16.6616 21.2763C17.0713 21.2763 17.4438 21.2298 17.779 21.1366C18.1142 21.0249 18.3935 20.8108 18.617 20.4942C18.8405 20.159 18.9988 19.6562 19.0919 18.9857L19.455 16.3041H21.6059L21.3266 18.3153C21.159 19.563 20.8517 20.4942 20.4048 21.1087C19.9765 21.7046 19.4271 22.0957 18.7567 22.2819C18.0863 22.4868 17.3227 22.5892 16.4661 22.5892Z" fill="white"/>
<path d="M29.5222 22.4495C28.74 22.4495 28.1068 22.3657 27.6226 22.1981C27.1385 22.0305 26.766 21.7791 26.5053 21.4439C26.2632 21.0901 26.1142 20.6525 26.0584 20.131C26.0211 19.591 26.049 18.9671 26.1422 18.2595L27.0081 11.9743C27.1198 11.2108 27.3247 10.5497 27.6226 9.99102C27.9392 9.41372 28.4048 8.97609 29.0193 8.67812C29.6339 8.36154 30.4719 8.20325 31.5334 8.20325C32.3155 8.20325 32.9487 8.29636 33.4329 8.48259C33.9171 8.65019 34.2802 8.9016 34.5223 9.2368C34.7644 9.57201 34.9041 9.9724 34.9413 10.438C34.9972 10.8849 34.9879 11.397 34.9134 11.9743L34.0474 18.2595C33.9171 19.2092 33.6843 20.0007 33.3491 20.6338C33.0325 21.2484 32.567 21.7046 31.9524 22.0026C31.3379 22.3006 30.5278 22.4495 29.5222 22.4495ZM29.6898 21.1366C30.2484 21.1366 30.6674 21.0342 30.9468 20.8294C31.2447 20.6059 31.4589 20.3173 31.5893 19.9634C31.7196 19.591 31.8034 19.2092 31.8407 18.8181L32.8184 11.8347C32.8928 11.425 32.9115 11.0525 32.8742 10.7173C32.8556 10.3635 32.7346 10.0841 32.5111 9.87928C32.2876 9.65581 31.8965 9.54408 31.3379 9.54408C30.7792 9.54408 30.3509 9.65581 30.0529 9.87928C29.7736 10.0841 29.5687 10.3635 29.4384 10.7173C29.3266 11.0525 29.2335 11.425 29.159 11.8347L28.1813 18.8181C28.1441 19.2092 28.1348 19.591 28.1534 19.9634C28.172 20.3173 28.2931 20.6059 28.5165 20.8294C28.74 21.0342 29.1311 21.1366 29.6898 21.1366Z" fill="white"/>
<path d="M41.5449 22.4775C40.8745 22.4775 40.3251 22.403 39.8968 22.254C39.4871 22.0864 39.1705 21.8443 38.947 21.5277C38.7235 21.1925 38.5932 20.7735 38.5559 20.2707C38.5187 19.7493 38.5466 19.144 38.6397 18.455L39.5895 11.6112C39.7012 10.8849 39.8968 10.2704 40.1761 9.76755C40.4741 9.26474 40.8745 8.88297 41.3773 8.62226C41.8801 8.34292 42.5039 8.20325 43.2488 8.20325C43.9937 8.20325 44.5524 8.31498 44.9249 8.53845C45.3159 8.76193 45.586 9.03195 45.735 9.34854L46.3774 4.65564H48.5004L46.0143 22.254H44.5617L44.5338 20.9411C44.4034 21.1646 44.2172 21.3974 43.9751 21.6395C43.7516 21.8629 43.4351 22.0585 43.0254 22.2261C42.6343 22.3937 42.1408 22.4775 41.5449 22.4775ZM42.1315 21.1925C42.597 21.1925 42.9695 21.1087 43.2488 20.9411C43.5468 20.7735 43.7703 20.55 43.9193 20.2707C44.0682 19.9914 44.18 19.6841 44.2545 19.3489C44.3476 19.0137 44.4127 18.6785 44.45 18.3433C44.6176 17.0583 44.7852 15.7733 44.9528 14.4884C45.139 13.2034 45.3253 11.9278 45.5115 10.6614C45.5115 10.5125 45.4556 10.3542 45.3439 10.1866C45.2321 10.0003 45.0552 9.84204 44.8131 9.71168C44.5897 9.58132 44.2638 9.51614 43.8354 9.51614C43.2395 9.51614 42.7926 9.63719 42.4946 9.87928C42.2153 10.1028 42.0197 10.4007 41.908 10.7732C41.8149 11.127 41.7404 11.5088 41.6845 11.9185L40.7068 18.8181C40.6696 19.1347 40.6417 19.442 40.623 19.74C40.623 20.0193 40.6603 20.2707 40.7348 20.4942C40.8093 20.7176 40.9489 20.8946 41.1538 21.0249C41.3773 21.1366 41.7032 21.1925 42.1315 21.1925Z" fill="white"/>
<path d="M54.8453 22.5613C53.9515 22.5613 53.2252 22.4495 52.6665 22.2261C52.1078 21.984 51.726 21.5743 51.5212 20.997C51.335 20.4011 51.3164 19.5351 51.4653 18.3991L52.4151 11.6391C52.6199 10.3169 53.0762 9.42303 53.7838 8.95746C54.5101 8.47328 55.4878 8.23118 56.7169 8.23118C58.244 8.23118 59.2961 8.51052 59.8734 9.0692C60.4694 9.60925 60.637 10.5776 60.3763 11.9743C60.2086 12.7937 59.8641 13.4548 59.3427 13.9576C58.8213 14.4604 58.216 14.8608 57.527 15.1588C56.838 15.4381 56.1582 15.6337 55.4878 15.7454C54.836 15.8571 54.3053 15.9316 53.8956 15.9689L53.4766 18.9299C53.3462 19.8051 53.3835 20.4197 53.5883 20.7735C53.7932 21.1087 54.2587 21.2763 54.985 21.2763C55.7113 21.2763 56.2234 21.118 56.5214 20.8014C56.8193 20.4662 57.0242 19.861 57.1359 18.9857L57.3873 17.2538H59.4824L59.2868 18.7064C59.1565 19.7306 58.9237 20.5221 58.5885 21.0808C58.2719 21.6395 57.8063 22.0305 57.1918 22.254C56.5959 22.4589 55.8137 22.5613 54.8453 22.5613ZM54.0911 14.7677C54.4077 14.7305 54.7802 14.6746 55.2085 14.6001C55.6368 14.507 56.0558 14.3673 56.4655 14.1811C56.8938 13.9763 57.2663 13.6969 57.5829 13.3431C57.8994 12.9706 58.1136 12.5051 58.2253 11.9464C58.3929 11.1829 58.3929 10.5683 58.2253 10.1028C58.0764 9.63719 57.6015 9.40441 56.8007 9.40441C56.0744 9.40441 55.5344 9.57201 55.1805 9.90722C54.8453 10.2424 54.6126 10.8849 54.4822 11.8347L54.0911 14.7677Z" fill="white"/>
<path d="M64.8614 22.254L64.3306 8.42672H66.3698L66.705 20.131C66.7609 20.0938 66.9099 19.9076 67.152 19.5723C67.3941 19.2371 67.6827 18.7995 68.0179 18.2595C68.3531 17.7194 68.679 17.1142 68.9956 16.4438C69.3308 15.7733 69.6008 15.0936 69.8057 14.4046C70.1968 13.1569 70.4202 12.0395 70.4761 11.0525C70.532 10.0469 70.4016 9.17162 70.085 8.42672H72.0963C72.2825 8.7433 72.3942 9.18093 72.4315 9.73961C72.4873 10.2797 72.478 10.8849 72.4035 11.5553C72.3291 12.2071 72.208 12.8775 72.0404 13.5666C71.8728 14.2556 71.6493 14.9074 71.37 15.5219C71.0534 16.2668 70.6716 17.0211 70.2247 17.7846C69.7964 18.5295 69.3588 19.2185 68.9118 19.8517C68.4835 20.4662 68.0924 20.9877 67.7386 21.416C67.3848 21.8443 67.124 22.1236 66.9564 22.254H64.8614Z" fill="white"/>
<path d="M78.5051 22.5613C77.6113 22.5613 76.885 22.4495 76.3263 22.2261C75.7676 21.984 75.3859 21.5743 75.181 20.997C74.9948 20.4011 74.9762 19.5351 75.1251 18.3991L76.0749 11.6391C76.2797 10.3169 76.736 9.42303 77.4437 8.95746C78.1699 8.47328 79.1476 8.23118 80.3767 8.23118C81.9038 8.23118 82.9559 8.51052 83.5332 9.0692C84.1292 9.60925 84.2968 10.5776 84.0361 11.9743C83.8685 12.7937 83.5239 13.4548 83.0025 13.9576C82.4811 14.4604 81.8758 14.8608 81.1868 15.1588C80.4978 15.4381 79.818 15.6337 79.1476 15.7454C78.4958 15.8571 77.9651 15.9316 77.5554 15.9689L77.1364 18.9299C77.006 19.8051 77.0433 20.4197 77.2481 20.7735C77.453 21.1087 77.9185 21.2763 78.6448 21.2763C79.3711 21.2763 79.8832 21.118 80.1812 20.8014C80.4791 20.4662 80.684 19.861 80.7957 18.9857L81.0471 17.2538H83.1422L82.9466 18.7064C82.8163 19.7306 82.5835 20.5221 82.2483 21.0808C81.9317 21.6395 81.4661 22.0305 80.8516 22.254C80.2557 22.4589 79.4735 22.5613 78.5051 22.5613ZM77.7509 14.7677C78.0675 14.7305 78.44 14.6746 78.8683 14.6001C79.2966 14.507 79.7156 14.3673 80.1253 14.1811C80.5536 13.9763 80.9261 13.6969 81.2427 13.3431C81.5593 12.9706 81.7734 12.5051 81.8851 11.9464C82.0528 11.1829 82.0528 10.5683 81.8851 10.1028C81.7362 9.63719 81.2613 9.40441 80.4605 9.40441C79.7342 9.40441 79.1942 9.57201 78.8403 9.90722C78.5051 10.2424 78.2724 10.8849 78.142 11.8347L77.7509 14.7677Z" fill="white"/>
<path d="M87.2642 22.254L89.1916 8.42672H91.2867L90.5324 13.6504C90.6442 13.2593 90.8118 12.7658 91.0352 12.1699C91.2587 11.5739 91.5474 10.978 91.9012 10.3821C92.2737 9.78617 92.702 9.29267 93.1862 8.9016C93.689 8.4919 94.2476 8.28705 94.8622 8.28705C94.9367 8.28705 95.0298 8.28705 95.1415 8.28705C95.2533 8.28705 95.3371 8.29636 95.3929 8.31498L95.1136 10.2424C95.0764 10.2238 95.0112 10.2145 94.9181 10.2145C94.8436 10.1959 94.7598 10.1959 94.6667 10.2145C94.2011 10.2145 93.7448 10.41 93.2979 10.8011C92.8696 11.1736 92.4692 11.6671 92.0967 12.2816C91.7243 12.8775 91.3891 13.5386 91.0911 14.2649C90.7932 14.9912 90.5417 15.7361 90.3369 16.4996C90.1321 17.2445 89.9831 17.9429 89.89 18.5947L89.3592 22.254H87.2642Z" fill="white"/>
<path d="M100.854 22.5054C99.9597 22.5054 99.252 22.403 98.7306 22.1981C98.2278 21.9933 97.8647 21.714 97.6412 21.3601C97.4363 20.9877 97.3246 20.5593 97.306 20.0752C97.306 19.591 97.3432 19.0695 97.4177 18.5109L97.5574 17.4773H99.6804L99.4848 18.874C99.429 19.3209 99.401 19.7306 99.401 20.1031C99.401 20.4569 99.5128 20.7456 99.7362 20.969C99.9597 21.1739 100.379 21.2763 100.993 21.2763C101.552 21.2763 101.971 21.1739 102.25 20.969C102.53 20.7642 102.725 20.5035 102.837 20.1869C102.949 19.8703 103.023 19.5723 103.06 19.293L103.172 18.4271C103.247 17.9615 103.219 17.5704 103.088 17.2538C102.958 16.9373 102.725 16.6672 102.39 16.4438C102.073 16.2017 101.645 15.9689 101.105 15.7454C100.565 15.5219 100.081 15.2705 99.6524 14.9912C99.2427 14.7118 98.9355 14.358 98.7306 13.9297C98.5444 13.4828 98.4885 12.9148 98.563 12.2257L98.6747 11.4156C98.7679 10.708 98.9727 10.1121 99.2893 9.62788C99.6059 9.14369 100.071 8.78055 100.686 8.53845C101.301 8.27774 102.083 8.14738 103.032 8.14738C103.982 8.14738 104.718 8.27774 105.239 8.53845C105.761 8.78055 106.105 9.18093 106.273 9.73961C106.459 10.2797 106.487 10.9966 106.357 11.8905L106.189 13.0079H104.122L104.317 11.5833C104.429 10.7639 104.364 10.1959 104.122 9.87928C103.898 9.54408 103.489 9.37647 102.893 9.37647C102.204 9.37647 101.71 9.55339 101.412 9.90722C101.133 10.2424 100.956 10.6521 100.882 11.1363L100.77 11.9743C100.695 12.4958 100.751 12.9241 100.937 13.2593C101.124 13.5759 101.412 13.8366 101.803 14.0414C102.213 14.2463 102.669 14.4698 103.172 14.7118C103.675 14.9167 104.113 15.1495 104.485 15.4102C104.876 15.6709 105.155 16.0154 105.323 16.4438C105.509 16.8721 105.556 17.4587 105.463 18.2036L105.379 18.874C105.304 19.5444 105.118 20.159 104.82 20.7176C104.541 21.2577 104.085 21.6953 103.451 22.0305C102.837 22.3471 101.971 22.5054 100.854 22.5054Z" fill="white"/>
<path d="M113.272 22.5613C112.378 22.5613 111.652 22.4495 111.093 22.2261C110.534 21.984 110.153 21.5743 109.948 20.997C109.762 20.4011 109.743 19.5351 109.892 18.3991L110.842 11.6391C111.047 10.3169 111.503 9.42303 112.21 8.95746C112.937 8.47328 113.914 8.23118 115.144 8.23118C116.671 8.23118 117.723 8.51052 118.3 9.0692C118.896 9.60925 119.064 10.5776 118.803 11.9743C118.635 12.7937 118.291 13.4548 117.769 13.9576C117.248 14.4604 116.643 14.8608 115.954 15.1588C115.265 15.4381 114.585 15.6337 113.914 15.7454C113.263 15.8571 112.732 15.9316 112.322 15.9689L111.903 18.9299C111.773 19.8051 111.81 20.4197 112.015 20.7735C112.22 21.1087 112.685 21.2763 113.412 21.2763C114.138 21.2763 114.65 21.118 114.948 20.8014C115.246 20.4662 115.451 19.861 115.563 18.9857L115.814 17.2538H117.909L117.713 18.7064C117.583 19.7306 117.35 20.5221 117.015 21.0808C116.699 21.6395 116.233 22.0305 115.618 22.254C115.022 22.4589 114.24 22.5613 113.272 22.5613ZM112.518 14.7677C112.834 14.7305 113.207 14.6746 113.635 14.6001C114.063 14.507 114.482 14.3673 114.892 14.1811C115.32 13.9763 115.693 13.6969 116.009 13.3431C116.326 12.9706 116.54 12.5051 116.652 11.9464C116.82 11.1829 116.82 10.5683 116.652 10.1028C116.503 9.63719 116.028 9.40441 115.227 9.40441C114.501 9.40441 113.961 9.57201 113.607 9.90722C113.272 10.2424 113.039 10.8849 112.909 11.8347L112.518 14.7677Z" fill="white"/>
<path d="M40.9886 38.5488V27.1099H38.9145V26.1671H44.4245V27.1099H42.3085V38.5488H40.9886Z" fill="white"/>
<path d="M47.7956 38.7373C47.0972 38.7373 46.5315 38.6605 46.0986 38.5069C45.6656 38.3393 45.3513 38.039 45.1558 37.606C44.9603 37.173 44.8625 36.5445 44.8625 35.7205V30.5457C44.8625 29.568 45.079 28.8976 45.512 28.5345C45.9589 28.1713 46.6922 27.9898 47.7118 27.9898C48.7034 27.9898 49.4157 28.1713 49.8487 28.5345C50.2956 28.8976 50.5191 29.568 50.5191 30.5457V33.2274H46.1614V36.1604C46.1614 36.8309 46.2662 37.2987 46.4757 37.5641C46.6852 37.8155 47.1112 37.9412 47.7537 37.9412C48.3403 37.9412 48.7313 37.8155 48.9269 37.5641C49.1224 37.3127 49.2202 36.8448 49.2202 36.1604V34.8196H50.5191V35.6995C50.5191 36.5096 50.4213 37.1381 50.2258 37.5851C50.0303 38.018 49.73 38.3183 49.3249 38.4859C48.9339 38.6535 48.4241 38.7373 47.7956 38.7373ZM46.1614 32.557H49.2202V30.5038C49.2202 29.9172 49.1224 29.4912 48.9269 29.2258C48.7313 28.9605 48.3263 28.8278 47.7118 28.8278C47.0972 28.8278 46.6852 28.9605 46.4757 29.2258C46.2662 29.4912 46.1614 29.9172 46.1614 30.5038V32.557Z" fill="white"/>
<path d="M55.0377 38.7373C54.3533 38.7373 53.7946 38.6605 53.3617 38.5069C52.9287 38.3393 52.6144 38.046 52.4189 37.627C52.2234 37.194 52.1256 36.5655 52.1256 35.7414V30.6295C52.1256 29.6099 52.3421 28.9186 52.775 28.5554C53.222 28.1783 53.9553 27.9898 54.9748 27.9898C55.9665 27.9898 56.6788 28.1713 57.1118 28.5345C57.5587 28.8976 57.7822 29.568 57.7822 30.5457V31.9075H56.4833V30.5038C56.4833 29.9032 56.3855 29.4703 56.19 29.2049C55.9944 28.9256 55.5894 28.7859 54.9748 28.7859C54.3603 28.7859 53.9483 28.9256 53.7388 29.2049C53.5293 29.4703 53.4245 29.9032 53.4245 30.5038V36.0766C53.4245 36.747 53.5293 37.2219 53.7388 37.5013C53.9483 37.7666 54.3743 37.8993 55.0167 37.8993C55.6034 37.8993 55.9944 37.7666 56.19 37.5013C56.3855 37.2359 56.4833 36.761 56.4833 36.0766V34.673H57.7822V35.7414C57.7822 36.5375 57.6844 37.1521 57.4889 37.5851C57.2934 38.018 56.9931 38.3183 56.588 38.4859C56.183 38.6535 55.6662 38.7373 55.0377 38.7373Z" fill="white"/>
<path d="M59.6401 38.5488V25.35H60.8762V29.0373C61.0438 28.716 61.2952 28.4646 61.6304 28.2831C61.9656 28.0875 62.3916 27.9898 62.9083 27.9898C63.6486 27.9898 64.1863 28.1225 64.5215 28.3878C64.8707 28.6392 65.0942 28.9744 65.1919 29.3934C65.2897 29.7985 65.3386 30.2454 65.3386 30.7343V38.5488H64.0397V30.9228C64.0397 30.7133 64.0327 30.4968 64.0187 30.2734C64.0048 30.0359 63.9489 29.8194 63.8511 29.6239C63.7673 29.4284 63.6207 29.2677 63.4112 29.142C63.2016 29.0024 62.8944 28.9325 62.4893 28.9325C62.1262 28.9325 61.8259 28.9954 61.5885 29.1211C61.365 29.2328 61.1974 29.3655 61.0857 29.5192C60.9879 29.6728 60.939 29.8055 60.939 29.9172V38.5488H59.6401Z" fill="white"/>
<path d="M67.3942 38.5488V28.1783H68.4627L68.6303 29.2887C68.742 28.8697 69.0004 28.5484 69.4054 28.325C69.8105 28.1015 70.2295 27.9898 70.6625 27.9898C71.4027 27.9898 71.9404 28.1225 72.2756 28.3878C72.6248 28.6392 72.8483 28.9744 72.9461 29.3934C73.0438 29.7985 73.0927 30.2454 73.0927 30.7343V38.5488H71.7938V30.9228C71.7938 30.6714 71.7868 30.427 71.7728 30.1896C71.7589 29.9521 71.703 29.7426 71.6052 29.5611C71.5214 29.3655 71.3748 29.2119 71.1653 29.1001C70.9558 28.9884 70.6485 28.9325 70.2435 28.9325C69.8943 28.9325 69.608 29.0024 69.3845 29.142C69.175 29.2677 69.0144 29.4214 68.9026 29.603C68.8049 29.7706 68.735 29.9312 68.6931 30.0848V38.5488H67.3942Z" fill="white"/>
<path d="M77.7462 38.6954C77.1037 38.6954 76.566 38.6116 76.133 38.444C75.714 38.2625 75.3997 37.9482 75.1902 37.5013C74.9947 37.0543 74.8969 36.4398 74.8969 35.6576V30.8181C74.8969 29.8125 75.1134 29.0932 75.5464 28.6602C75.9933 28.2272 76.7266 28.0107 77.7462 28.0107C78.7658 28.0107 79.492 28.2202 79.925 28.6392C80.372 29.0582 80.5954 29.7845 80.5954 30.8181V35.6576C80.5954 36.4398 80.4977 37.0543 80.3021 37.5013C80.1066 37.9342 79.7993 38.2415 79.3803 38.4231C78.9613 38.6047 78.4166 38.6954 77.7462 38.6954ZM77.7462 37.8784C78.3048 37.8784 78.7029 37.7387 78.9403 37.4594C79.1778 37.18 79.2965 36.6702 79.2965 35.93V30.7552C79.2965 30.0708 79.1848 29.582 78.9613 29.2887C78.7378 28.9814 78.3328 28.8278 77.7462 28.8278C77.2015 28.8278 76.8034 28.9744 76.552 29.2677C76.3145 29.5471 76.1958 30.0429 76.1958 30.7552V35.93C76.1958 36.6563 76.3145 37.1661 76.552 37.4594C76.8034 37.7387 77.2015 37.8784 77.7462 37.8784Z" fill="white"/>
<path d="M82.5342 38.5488V25.2662H83.8121V38.5488H82.5342Z" fill="white"/>
<path d="M88.6306 38.6954C87.9881 38.6954 87.4504 38.6116 87.0174 38.444C86.5984 38.2625 86.2841 37.9482 86.0746 37.5013C85.8791 37.0543 85.7813 36.4398 85.7813 35.6576V30.8181C85.7813 29.8125 85.9978 29.0932 86.4308 28.6602C86.8777 28.2272 87.611 28.0107 88.6306 28.0107C89.6502 28.0107 90.3764 28.2202 90.8094 28.6392C91.2564 29.0582 91.4798 29.7845 91.4798 30.8181V35.6576C91.4798 36.4398 91.3821 37.0543 91.1865 37.5013C90.991 37.9342 90.6837 38.2415 90.2647 38.4231C89.8457 38.6047 89.301 38.6954 88.6306 38.6954ZM88.6306 37.8784C89.1892 37.8784 89.5873 37.7387 89.8247 37.4594C90.0622 37.18 90.1809 36.6702 90.1809 35.93V30.7552C90.1809 30.0708 90.0692 29.582 89.8457 29.2887C89.6222 28.9814 89.2172 28.8278 88.6306 28.8278C88.0859 28.8278 87.6878 28.9744 87.4364 29.2677C87.199 29.5471 87.0802 30.0429 87.0802 30.7552V35.93C87.0802 36.6563 87.199 37.1661 87.4364 37.4594C87.6878 37.7387 88.0859 37.8784 88.6306 37.8784Z" fill="white"/>
<path d="M95.8069 41C95.6533 41 95.4717 40.993 95.2622 40.979C95.0527 40.9651 94.8432 40.9511 94.6337 40.9371C94.4381 40.9232 94.2636 40.9022 94.1099 40.8743C93.9703 40.8603 93.8795 40.8464 93.8376 40.8324V40.0782C94.0052 40.0921 94.2426 40.1201 94.5499 40.162C94.8711 40.2039 95.1574 40.2248 95.4089 40.2248C95.6044 40.2248 95.8209 40.2109 96.0583 40.1829C96.2958 40.155 96.5262 40.0782 96.7497 39.9525C96.9871 39.8268 97.1757 39.6173 97.3153 39.324C97.469 39.0306 97.5458 38.6256 97.5458 38.1088V36.6842C97.462 36.9496 97.3293 37.187 97.1477 37.3965C96.9801 37.606 96.7567 37.7736 96.4773 37.8993C96.198 38.0111 95.8558 38.0669 95.4508 38.0669C95.1854 38.0669 94.913 38.039 94.6337 37.9831C94.3683 37.9273 94.1239 37.8155 93.9004 37.6479C93.677 37.4663 93.4954 37.194 93.3557 36.8309C93.23 36.4537 93.1672 35.9509 93.1672 35.3224V30.5667C93.1672 29.6449 93.3487 28.9814 93.7119 28.5764C94.075 28.1713 94.6616 27.9688 95.4717 27.9688C95.8348 27.9688 96.1631 28.0177 96.4564 28.1155C96.7637 28.2132 97.022 28.3599 97.2315 28.5554C97.441 28.751 97.6017 28.9954 97.7134 29.2887H97.4829L97.6924 28.1783H98.8238V37.6689C98.8238 38.2136 98.7539 38.6885 98.6143 39.0935C98.4886 39.5125 98.3 39.8617 98.0486 40.141C97.7972 40.4343 97.4829 40.6508 97.1058 40.7905C96.7287 40.9302 96.2958 41 95.8069 41ZM95.9117 37.2289C96.3726 37.2289 96.7148 37.1172 96.9382 36.8937C97.1757 36.6563 97.3293 36.363 97.3991 36.0138C97.4829 35.6506 97.5248 35.2875 97.5248 34.9244V29.8544C97.4829 29.7287 97.3991 29.589 97.2734 29.4353C97.1617 29.2817 96.9941 29.149 96.7706 29.0373C96.5611 28.9256 96.2748 28.8697 95.9117 28.8697C95.3949 28.8697 95.0248 28.9954 94.8013 29.2468C94.5778 29.4982 94.4661 29.9591 94.4661 30.6295V35.6367C94.4661 35.9998 94.515 36.2931 94.6127 36.5166C94.7105 36.7401 94.8362 36.9007 94.9898 36.9985C95.1574 37.0962 95.3251 37.1591 95.4927 37.187C95.6603 37.2149 95.7999 37.2289 95.9117 37.2289Z" fill="white"/>
<path d="M100.907 38.5488V28.1783H102.185V38.5488H100.907ZM101.556 26.9003C101.347 26.9003 101.165 26.8305 101.011 26.6908C100.872 26.5372 100.802 26.3626 100.802 26.1671C100.802 25.9576 100.872 25.79 101.011 25.6643C101.165 25.5246 101.347 25.4548 101.556 25.4548C101.752 25.4548 101.926 25.5246 102.08 25.6643C102.234 25.79 102.31 25.9576 102.31 26.1671C102.31 26.3626 102.234 26.5372 102.08 26.6908C101.926 26.8305 101.752 26.9003 101.556 26.9003Z" fill="white"/>
<path d="M107.087 38.7373C106.389 38.7373 105.823 38.6605 105.39 38.5069C104.957 38.3393 104.643 38.039 104.447 37.606C104.252 37.173 104.154 36.5445 104.154 35.7205V30.5457C104.154 29.568 104.37 28.8976 104.803 28.5345C105.25 28.1713 105.984 27.9898 107.003 27.9898C107.995 27.9898 108.707 28.1713 109.14 28.5345C109.587 28.8976 109.81 29.568 109.81 30.5457V33.2274H105.453V36.1604C105.453 36.8309 105.558 37.2987 105.767 37.5641C105.977 37.8155 106.403 37.9412 107.045 37.9412C107.632 37.9412 108.023 37.8155 108.218 37.5641C108.414 37.3127 108.512 36.8448 108.512 36.1604V34.8196H109.81V35.6995C109.81 36.5096 109.713 37.1381 109.517 37.5851C109.322 38.018 109.021 38.3183 108.616 38.4859C108.225 38.6535 107.715 38.7373 107.087 38.7373ZM105.453 32.557H108.512V30.5038C108.512 29.9172 108.414 29.4912 108.218 29.2258C108.023 28.9605 107.618 28.8278 107.003 28.8278C106.389 28.8278 105.977 28.9605 105.767 29.2258C105.558 29.4912 105.453 29.9172 105.453 30.5038V32.557Z" fill="white"/>
<path d="M114.182 38.6954C113.428 38.6954 112.842 38.6047 112.423 38.4231C112.004 38.2275 111.71 37.9273 111.543 37.5222C111.375 37.1032 111.291 36.5515 111.291 35.8671V34.9663H112.611V36.1604C112.611 36.8169 112.723 37.2708 112.946 37.5222C113.17 37.7736 113.575 37.8993 114.161 37.8993C114.678 37.8993 115.055 37.7736 115.293 37.5222C115.544 37.2708 115.67 36.8448 115.67 36.2442V35.6576C115.67 35.3364 115.621 35.064 115.523 34.8406C115.425 34.6031 115.237 34.3866 114.958 34.1911C114.692 33.9956 114.315 33.8 113.826 33.6045C113.365 33.4229 112.96 33.2274 112.611 33.0179C112.262 32.8084 111.983 32.543 111.773 32.2218C111.578 31.9005 111.48 31.4885 111.48 30.9857V30.3572C111.48 29.6169 111.689 29.0443 112.108 28.6392C112.541 28.2202 113.268 28.0107 114.287 28.0107C114.958 28.0107 115.488 28.1015 115.879 28.2831C116.284 28.4646 116.578 28.758 116.759 29.163C116.955 29.568 117.053 30.0918 117.053 30.7343V31.6142H115.775V30.6086C115.775 29.9102 115.656 29.4354 115.418 29.1839C115.181 28.9186 114.804 28.7859 114.287 28.7859C113.701 28.7859 113.302 28.9256 113.093 29.2049C112.897 29.4842 112.8 29.8334 112.8 30.2524V30.8181C112.8 31.2092 112.883 31.5304 113.051 31.7818C113.233 32.0332 113.484 32.2427 113.805 32.4103C114.127 32.5779 114.511 32.7525 114.958 32.9341C115.363 33.1017 115.719 33.2832 116.026 33.4788C116.347 33.6604 116.599 33.9118 116.78 34.233C116.962 34.5542 117.053 34.9942 117.053 35.5529V36.0347C117.053 36.5934 116.962 37.0753 116.78 37.4803C116.613 37.8714 116.319 38.1717 115.9 38.3812C115.481 38.5907 114.909 38.6954 114.182 38.6954Z" fill="white"/>
<path d="M1 0V34.9174H31.2617" stroke="white" stroke-width="0.5"/>
</svg>
