<svg width="22" height="22" viewBox="0 0 22 22" fill="none" xmlns="http://www.w3.org/2000/svg">
<path d="M1.61761 1.61748C1.60873 1.95981 1.73442 2.29199 1.9677 2.5427C2.2223 2.80691 2.57614 2.95207 2.94294 2.9428L17.1964 2.9428L0.667265 19.4719C0.15892 19.9938 0.158921 20.8256 0.667265 21.3474C1.18908 21.8558 2.02091 21.8558 2.54273 21.3474L19.0719 4.81825L19.0719 19.0718C19.0652 19.5564 19.3176 20.0078 19.7339 20.256C20.1503 20.5041 20.6674 20.5112 21.0905 20.2747C21.5136 20.0382 21.7784 19.5939 21.7851 19.1093L21.7851 1.60497C21.7661 0.881032 21.1837 0.298649 20.4597 0.279649L2.95544 0.279649C2.59967 0.276502 2.25756 0.41644 2.00598 0.668017C1.7544 0.919594 1.61446 1.26171 1.61761 1.61748Z" fill="white"/>
</svg>
