<svg width="77" height="77" viewBox="0 0 77 77" fill="none" xmlns="http://www.w3.org/2000/svg">
<path d="M77 38.5C77 59.763 59.763 77 38.5 77C17.237 77 0 59.763 0 38.5C0 17.237 17.237 0 38.5 0C59.763 0 77 17.237 77 38.5Z" fill="url(#paint0_linear_9_106)"/>
<path d="M30.8018 30.8054C30.795 31.0678 30.8914 31.3225 31.0702 31.5147C31.2654 31.7172 31.5366 31.8285 31.8178 31.8214H42.7446L30.0733 44.4927C29.6836 44.8927 29.6836 45.5304 30.0733 45.9304C30.4733 46.3201 31.111 46.3201 31.511 45.9304L44.1823 33.2591L44.1823 44.1859C44.1772 44.5574 44.3706 44.9035 44.6898 45.0937C45.009 45.2839 45.4055 45.2894 45.7298 45.1081C46.0541 44.9268 46.2571 44.5862 46.2622 44.2146V30.7958C46.2477 30.2408 45.8012 29.7944 45.2462 29.7798H31.8274C31.5547 29.7774 31.2924 29.8847 31.0996 30.0775C30.9067 30.2704 30.7994 30.5327 30.8018 30.8054Z" fill="white"/>
<defs>
<linearGradient id="paint0_linear_9_106" x1="68" y1="13" x2="8" y2="66" gradientUnits="userSpaceOnUse">
<stop stop-color="#2A9CDC"/>
<stop offset="0.3" stop-color="#46A8DF"/>
<stop offset="0.65" stop-color="#0C6597"/>
<stop offset="1" stop-color="#10547A"/>
</linearGradient>
</defs>
</svg>
