<svg width="117" height="214" viewBox="0 0 117 214" fill="none" xmlns="http://www.w3.org/2000/svg">
<rect x="0.5" y="0.5" width="116" height="213" rx="4.5" stroke="#9747FF" stroke-dasharray="10 5"/>
<circle cx="58.5" cy="155.5" r="38.5" fill="url(#paint0_linear_1_477)"/>
<path d="M47.7044 145.704C47.6942 146.098 47.8387 146.48 48.1069 146.768C48.3997 147.072 48.8065 147.239 49.2282 147.228L65.6157 147.228L46.6118 166.232C46.0273 166.832 46.0273 167.788 46.6118 168.388C47.2117 168.973 48.1681 168.973 48.7681 168.388L67.7719 149.384L67.7719 165.772C67.7642 166.329 68.0544 166.848 68.5331 167.133C69.0118 167.419 69.6064 167.427 70.0928 167.155C70.5792 166.883 70.8836 166.372 70.8913 165.815L70.8913 145.69C70.8695 144.858 70.1999 144.188 69.3676 144.166L49.2426 144.166C48.8335 144.163 48.4402 144.323 48.1509 144.613C47.8617 144.902 47.7008 145.295 47.7044 145.704Z" fill="white"/>
<defs>
<linearGradient id="paint0_linear_1_477" x1="88" y1="130" x2="28" y2="183" gradientUnits="userSpaceOnUse">
<stop stop-color="#2A9CDC"/>
<stop offset="0.3" stop-color="#4ABAF9"/>
<stop offset="0.65" stop-color="#2F7FAB"/>
<stop offset="1" stop-color="#10547A"/>
</linearGradient>
</defs>
</svg>
