<svg width="77" height="77" viewBox="0 0 77 77" fill="none" xmlns="http://www.w3.org/2000/svg">
<circle cx="38.5" cy="38.5" r="38.5" fill="url(#paint0_linear_1_481)"/>
<path d="M27.7044 28.7043C27.6942 29.0979 27.8387 29.4798 28.1069 29.768C28.3997 30.0718 28.8065 30.2387 29.2282 30.228L45.6157 30.228L26.6118 49.2319C26.0273 49.8318 26.0273 50.7882 26.6118 51.3881C27.2117 51.9726 28.1681 51.9726 28.7681 51.3881L47.7719 32.3843L47.7719 48.7718C47.7642 49.329 48.0544 49.848 48.5331 50.1333C49.0118 50.4186 49.6064 50.4268 50.0928 50.1548C50.5792 49.8829 50.8836 49.3721 50.8913 48.8149L50.8913 28.6899C50.8695 27.8576 50.1999 27.188 49.3676 27.1661L29.2426 27.1661C28.8335 27.1625 28.4402 27.3234 28.1509 27.6127C27.8617 27.9019 27.7008 28.2952 27.7044 28.7043Z" fill="white"/>
<defs>
<linearGradient id="paint0_linear_1_481" x1="68" y1="13" x2="8" y2="66" gradientUnits="userSpaceOnUse">
<stop stop-color="#2A9CDC"/>
<stop offset="0.3" stop-color="#4ABAF9"/>
<stop offset="0.65" stop-color="#2F7FAB"/>
<stop offset="1" stop-color="#10547A"/>
</linearGradient>
</defs>
</svg>
