<svg width="19" height="22" viewBox="0 0 19 22" fill="none" xmlns="http://www.w3.org/2000/svg">
<path d="M18.9762 5.25361C17.5829 5.25357 16.2467 4.70005 15.2615 3.71482C14.2763 2.72958 13.7228 1.39333 13.7229 3.05176e-05H9.96951V14.6974C9.96881 15.3675 9.75723 16.0204 9.36475 16.5635C8.97227 17.1066 8.41881 17.5124 7.78281 17.7234C7.14681 17.9344 6.46053 17.9399 5.82124 17.7391C5.18195 17.5383 4.62209 17.1413 4.221 16.6045C3.8199 16.0677 3.59793 15.4183 3.58654 14.7483C3.57515 14.0784 3.77492 13.4218 4.15753 12.8717C4.54014 12.3215 5.08619 11.9058 5.71828 11.6834C6.35037 11.4609 7.03644 11.4431 7.67925 11.6323V7.98374C6.31317 7.79954 4.9234 8.03648 3.69553 8.66292C2.46765 9.28936 1.46011 10.2755 0.807446 11.4896C0.154777 12.7038 -0.111954 14.0881 0.0428692 15.4578C0.197692 16.8275 0.766701 18.1174 1.67391 19.1553C2.58113 20.1931 3.78336 20.9294 5.12009 21.266C6.45681 21.6025 7.8644 21.5233 9.1549 21.0388C10.4454 20.5543 11.5574 19.6877 12.3424 18.5546C13.1273 17.4215 13.5479 16.0759 13.548 14.6974L13.6575 7.26836C15.1997 8.40045 17.0635 9.00958 18.9766 9.00673L18.9762 5.25361Z" fill="url(#paint0_linear_14_59)"/>
<defs>
<linearGradient id="paint0_linear_14_59" x1="16.7585" y1="3.625" x2="0.402721" y2="16.3942" gradientUnits="userSpaceOnUse">
<stop stop-color="#2A9CDC"/>
<stop offset="0.3" stop-color="#46A8DF"/>
<stop offset="0.65" stop-color="#0C6597"/>
<stop offset="1" stop-color="#10547A"/>
</linearGradient>
</defs>
</svg>
